<svg width="128" height="128" viewBox="800 780 1050 1050" fill="none" xmlns="http://www.w3.org/2000/svg">
<rect x="800" y="780" width="1050" height="1050" rx="80" fill="#0E0E0E"/>
<path d="M1641.89 1771.01L1323.16 1451.99L1377.08 1398.07L1695.81 1717.09L1641.89 1771.01Z" fill="#FF6B35"/>
<path d="M1416.68 1358.47L1470.58 1304.57L1789.36 1623.54L1735.43 1677.47L1416.68 1358.47Z" fill="#FF6B35"/>
<path d="M1755.62 1198.71C1753.26 1186.96 1750.42 1175.39 1747.13 1164.03C1715.73 1053.23 1642.36 963.31 1549.24 905.48C1462 850.08 1356.71 822.94 1249.84 836.85C1230.75 839.21 1211.66 842.86 1192.68 847.87C1128.55 864.44 1066.19 896.35 1010.05 945.83C1009.99 945.88 1009.93 945.93 1009.88 945.98C1009.56 946.26 1009.24 946.55 1008.93 946.83C1008.05 947.61 1007.16 948.4 1006.28 949.2C1005.84 949.6 1005.4 949.99 1004.97 950.39C1004.14 951.15 1003.3 951.91 1002.47 952.67C1001.7 953.37 1000.94 954.08 1000.18 954.79C999.83 955.12 999.47 955.45 999.12 955.78C996.81 957.94 994.52 960.11 992.27 962.29C986.63 967.66 981.04 973.22 975.52 978.96C971.35 983.51 967.29 988.1 963.34 992.72C917.36 1045.38 886.73 1103.29 869.57 1162.89C864.25 1180.95 860.18 1199.11 857.31 1217.29C838.3 1333.49 868.4 1448.35 931.01 1541.19C994.65 1637.8 1093.41 1711.49 1213.74 1736.4C1224.62 1738.72 1235.65 1740.62 1246.83 1742.11C1300.88 1749.56 1357.94 1746.98 1416.29 1732.21C1418.52 1731.69 1420.75 1731.16 1422.98 1730.6V1730.58C1427.37 1729.43 1431.77 1728.22 1436.15 1726.93L1436.01 1726.76C1439.62 1725.68 1443.24 1724.55 1446.86 1723.38C1454 1721.13 1461.17 1718.71 1468.35 1716.1L1468.33 1716.08C1472.59 1714.47 1476.84 1712.81 1481.06 1711.07L1480.92 1710.93C1486.31 1708.74 1491.71 1706.44 1497.11 1704.03L1409.02 1615.86C1407.82 1616.23 1406.63 1616.61 1405.42 1616.96L1405.37 1616.91C1400.59 1618.37 1395.81 1619.71 1391.02 1620.94H1391.01C1386.21 1622.12 1381.39 1623.21 1376.53 1624.19L1376.48 1624.14C1368.87 1625.76 1361.26 1627.1 1353.67 1628.16C1349.55 1628.71 1345.41 1629.2 1341.26 1629.59L1341.22 1629.54C1330.59 1630.66 1320.02 1631.25 1309.54 1631.34C1240.72 1631.48 1174.03 1610.17 1118.08 1572.71C1107.02 1565.27 1096.39 1557.19 1086.25 1548.54C1038.23 1507.29 1001.43 1453.08 982.04 1391.61C977.78 1377.78 974.39 1363.53 971.94 1348.89C971.13 1344.59 970.42 1340.29 969.8 1335.99C969.09 1330.49 968.5 1324.95 968.06 1319.37C967.65 1315.23 967.33 1311.09 967.09 1306.97C966.75 1299.29 966.68 1291.55 966.89 1283.75C967.03 1264.13 968.93 1244.89 972.42 1226.17C983.33 1169.92 1008.54 1117.47 1044.36 1073.63C1095.21 1012.1 1166.94 968.29 1246.8 953.5C1257.17 951.67 1267.71 950.34 1278.41 949.51C1283.84 948.99 1289.25 948.61 1294.64 948.36C1299.13 948.22 1303.64 948.17 1308.18 948.22C1312.89 948.18 1317.58 948.25 1322.25 948.4C1329.45 948.75 1336.68 949.34 1343.94 950.18C1366.68 952.38 1388.61 956.84 1409.58 963.29C1470.1 982.37 1523.71 1018.28 1564.86 1065.24C1565.41 1065.87 1565.96 1066.5 1566.51 1067.14C1566.66 1067.31 1566.8 1067.48 1566.95 1067.65C1573.83 1075.69 1580.35 1084.04 1586.48 1092.68C1622.8 1144.12 1645.25 1205.28 1649.35 1269.27C1649.38 1269.83 1649.42 1270.4 1649.45 1270.96C1650.46 1290.31 1649.79 1310.04 1647.27 1329.97L1647.44 1330.12C1646.23 1339.85 1644.58 1349.61 1642.47 1359.38L1642.72 1359.63C1640.51 1369.98 1637.77 1380.33 1634.51 1390.64L1722.47 1478.67C1726.59 1469.38 1730.39 1460.11 1733.88 1450.85L1734.13 1451.1C1736.77 1443.75 1739.23 1436.43 1741.51 1429.13C1743.24 1423.81 1744.87 1418.51 1746.4 1413.21L1746.57 1413.35C1747.3 1410.58 1748 1407.82 1748.68 1405.06C1768.08 1333.24 1769.07 1263.42 1755.62 1198.68V1198.71Z" fill="#FF6B35"/>
</svg>
